<?xml version="1.0" encoding="UTF-8"?>
<svg version="1.1" xmlns="http://www.w3.org/2000/svg" width="32" height="32">
<path d="M0 0 C0.99 0 1.98 0 3 0 C3 0.99 3 1.98 3 3 C5.64 3 8.28 3 11 3 C11 2.01 11 1.02 11 0 C11.99 0 12.98 0 14 0 C14 0.99 14 1.98 14 3 C14.99 3 15.98 3 17 3 C17 3.99 17 4.98 17 6 C17.99 6 18.98 6 20 6 C20 6.99 20 7.98 20 9 C20.99 9 21.98 9 23 9 C23 11.64 23 14.28 23 17 C22.01 17 21.02 17 20 17 C20 15.02 20 13.04 20 11 C19.01 11 18.02 11 17 11 C17 12.98 17 14.96 17 17 C16.01 17 15.02 17 14 17 C14 16.01 14 15.02 14 14 C9.38 14 4.76 14 0 14 C0 14.99 0 15.98 0 17 C-0.99 17 -1.98 17 -3 17 C-3 15.02 -3 13.04 -3 11 C-3.99 11 -4.98 11 -6 11 C-6 12.98 -6 14.96 -6 17 C-6.99 17 -7.98 17 -9 17 C-9 14.36 -9 11.72 -9 9 C-8.01 9 -7.02 9 -6 9 C-6 8.01 -6 7.02 -6 6 C-5.01 6 -4.02 6 -3 6 C-3 5.01 -3 4.02 -3 3 C-2.01 3 -1.02 3 0 3 C0 2.01 0 1.02 0 0 Z M0 6 C0 6.99 0 7.98 0 9 C0.99 9 1.98 9 3 9 C3 8.01 3 7.02 3 6 C2.01 6 1.02 6 0 6 Z M11 6 C11 6.99 11 7.98 11 9 C11.99 9 12.98 9 14 9 C14 8.01 14 7.02 14 6 C13.01 6 12.02 6 11 6 Z " fill="#D9DEE9" transform="translate(9,6)"/>
<path d="M0 0 C1.98 0 3.96 0 6 0 C6 0.99 6 1.98 6 3 C4.02 3 2.04 3 0 3 C0 2.01 0 1.02 0 0 Z " fill="#D9DEE9" transform="translate(17,23)"/>
<path d="M0 0 C1.98 0 3.96 0 6 0 C6 0.99 6 1.98 6 3 C4.02 3 2.04 3 0 3 C0 2.01 0 1.02 0 0 Z " fill="#D9DEE9" transform="translate(9,23)"/>
<path d="M0 0 C0.99 0 1.98 0 3 0 C3 0.99 3 1.98 3 3 C2.01 3 1.02 3 0 3 C0 2.01 0 1.02 0 0 Z " fill="#D9DEE9" transform="translate(23,3)"/>
<path d="M0 0 C0.99 0 1.98 0 3 0 C3 0.99 3 1.98 3 3 C2.01 3 1.02 3 0 3 C0 2.01 0 1.02 0 0 Z " fill="#D9DEE9" transform="translate(6,3)"/>
</svg>
